<svg t="1596445393980" class="icon" viewBox="0 0 1024 1024" version="1.1" xmlns="http://www.w3.org/2000/svg" p-id="3047" width="200" height="200"><path d="M276.8856842041015 70.16203155517582c47.26095886230469 0 94.44232177734374 0.4758453369140625 141.78201141357422 0C457.4421691894531 69.7657821655273 475.5225616455079 89.98574829101562 475.6800231933593 127.09649353027345c0.23792266845703125 98.24821929931642 0.23792266845703125 196.25765075683594-0.3166534423828125 294.34667816162107-0.31751861572265627 35.68320922851562-20.458753967285155 54.0006591796875-54.87275390625 54.238581848144534-98.16862335205077 0.5554412841796875-196.33724670410155 0.31751861572265627-294.5058700561524-0.3166534423828125C88.71653900146487 475.1263122558594 69.368667602539 456.09595947265626 69.6057250976562 417.6372741699219 69.84451293945312 321.2924362182617 69.84451293945312 225.10679016113284 69.28907165527346 128.682356262207 69.05114898681643 87.21027221679691 89.5877685546875 69.44826354980472 129.6331817626953 69.84451293945312c49.08474426269531 0.6350372314453125 98.16862335205077 0.23792266845703125 147.25250244140625 0.31751861572265627zM757.8165100097657 69.28993682861324c45.436308288574224 0 90.87348175048827 0.4758453369140625 136.30979003906248-0.15919189453125 39.96581726074219-0.3962493896484375 60.899551391601555 17.049105834960937 60.661628723144524 58.6795166015625-0.4758453369140625 96.34483795166017-0.4758453369140625 192.68967590332034-0.15832672119140626 289.1132446289063 0.15832672119140626 41.313757324218756-21.092926025390625 58.996170043945305-60.97914733886719 58.91743927001953-94.44145660400392-0.15919189453125-189.0412399291992-0.079595947265625-283.64188842773433 0.15832672119140626-43.45419616699219 0.079595947265625-62.167895507812496-22.123347473144534-61.85124206542968-64.62671813964842 0.4758453369140625-92.69640197753905 0.23878784179687504-185.4732650756836-0.07873077392578126-278.2492630004883-0.079595947265625-42.18585205078125 18.23785400390625-64.23046875 62.48541412353516-63.199182128906244 49.08387908935546 1.1896133422851562 98.16862335205077 0.23792266845703125 147.25250244140625 0.23792266845703125V69.28993682861324zM268.0046798706055 549.109880065918c47.41928558349609 0 94.75897521972655 0.7933639526367188 142.17826080322266-0.15832672119140626 42.34417877197265-0.951690673828125 65.57754364013671 16.33447265625 65.41921691894532 60.81995544433594-0.31751861572265627 94.75897521972655-0.15919189453125 189.59668121337893 0 284.3565216064453 0.07873077392578126 39.964086914062506-17.76200866699219 60.74035949707032-59.63120727539063 60.34324493408203-96.66149139404297-0.8720947265625001-193.24425201416017-0.792498779296875-289.90574340820314-0.15832672119140626-39.25204925537109 0.23792266845703125-56.45948181152343-19.189544677734375-56.45948181152343-56.85486602783203 0-96.6623565673828 0.15919189453125-193.32384796142577 0.15919189453125-289.74828186035154 0-41.47208404541016 21.251252746582033-59.23409271240235 61.454127502441416-58.52032470703125 45.594635009765625 0.6341720581054687 91.19100036621094-0.079595947265625 136.78563537597657-0.079595947265625zM954.0741607666015 753.3764404296874c0 49.08474426269531-0.079595947265625 98.16862335205077 0 147.17377166748048 0.079595947265625 35.68320922851562-17.286163330078125 53.76273651123047-53.28602600097656 53.60440979003906-98.089892578125-0.079595947265625-196.3381118774414-0.15919189453125-294.42713928222656 0.15832672119140626-38.29949340820312 0.15832672119140626-57.48990325927734-18.397045898437497-57.56863403320313-56.22069396972657-0.3962493896484375-96.42356872558594-0.3962493896484375-192.68967590332034-0.31751861572265627-288.9549179077149 0.079595947265625-40.04454803466797 19.74498596191406-60.2653793334961 60.42370605468751-60.18578338623046 96.26524200439452 0.15832672119140626 192.68967590332034 0.079595947265625 288.9549179077149 0.079595947265625 38.062435913085935 0.07873077392578126 56.696539306640624 18.87202606201172 56.4586166381836 57.172384643554686-0.4758453369140625 49.163475036621094-0.23792266845703125 98.16862335205077-0.23792266845703125 147.17290649414062z" p-id="3048" fill="#ffffff"></path></svg>